<svg xmlns="http://www.w3.org/2000/svg" width="200" height="54" fill="none" viewBox="0 0 200 54"><path fill="#17a977" d="M192.602 10.136h7.397l-1.905 11.126h-7.34l-2.948 17.757q-.114.877.077 1.486.19.608.762.914.61.267 1.6.267.685.038 1.638-.153a45 45 0 0 0 1.486-.305l.457 10.822q-1.181.305-3.162.723-1.943.458-4.534.573-5.334.267-8.688-1.106-3.353-1.41-4.649-4.382t-.457-7.391l3.183-19.205h-4.677l-2.205 13.883q-.929 5.636-4.311 9.782-3.383 4.11-8.555 6.333-5.174 2.221-11.54 2.255-6.365-.034-10.809-2.255-4.41-2.221-6.4-6.333-1.562-3.312-1.284-7.576a25.9 25.9 0 0 1-3 5.707q-3.43 4.915-8.84 7.696-5.372 2.744-12.307 2.744t-11.43-2.744q-4.46-2.782-6.25-7.696-.85-2.354-1.046-5.072-1.197 3.791-3.51 6.825-3.164 4.152-8.117 6.439-4.915 2.248-11.24 2.248-6.936 0-11.432-2.744-4.457-2.782-6.249-7.696a18 18 0 0 1-.747-2.76q-.879 3.87-3.695 6.722-3.087 3.125-7.811 4.801t-10.441 1.677q-10.06 0-15.05-4-4.992-4.04-4.535-10.48h.43l-.22-.23h25.785q-.198-.368-.656-.608-.877-.495-3.315-.99l-7.316-1.296q-6.325-1.105-9.222-4.535-2.856-3.467-1.981-8.801.724-4.23 3.43-7.126 2.744-2.896 7.202-4.344Q18.633 9.603 24.5 9.603q9.564 0 14.48 3.847 4.867 3.812 4.053 10.426l.109.09h-.119l-.004.039H29.302v-.038H18.626q.08.376.427.724.571.534 2.933.99l8.383 1.525q6.325 1.181 9.22 4.268a8.2 8.2 0 0 1 1.712 2.721q.104-1.287.332-2.645 1.029-6.554 4.458-11.469 3.466-4.953 8.878-7.697 5.41-2.781 12.346-2.781 9.41 0 14.059 4.99 3.87 4.156 3.593 10.608a25.6 25.6 0 0 1 2.756-5.12q3.43-4.953 8.84-7.697 5.41-2.781 12.345-2.781 6.897 0 11.355 2.78 4.496 2.745 6.287 7.698.844 2.271 1.06 4.89l2.366-14.885h13.813L140.216 33.6q-.365 2.288.331 4.079a5.9 5.9 0 0 0 2.354 2.785c1.105.685 2.004 1.027 3.321 1.027 1.546 0 2.335-.342 3.617-1.027a9.5 9.5 0 0 0 3.217-2.785q1.326-1.791 1.691-4.08l4.056-23.513h13.814l-.008.05h4.753L179.042 0h15.242zm-88.073 10.003a12.08 12.08 0 0 1-10.014 7.641L56.41 31.748l36.008 1.643c4.088.186 7.182 3.757 6.78 7.82L98.02 53.087l4.773-11.41a15.38 15.38 0 0 1 11.848-9.255l18.449-2.84-17.946-1.479a7.13 7.13 0 0 1-6.553-7.101V9.669z"/></svg>