<svg width="143" height="48" viewBox="0 0 143 48" fill="none" xmlns="http://www.w3.org/2000/svg">
<g clip-path="url(#clip0_2_408)">
<path d="M64.3813 35C62.7464 35 61.2978 34.7179 60.0354 34.1538C58.7731 33.5897 57.7797 32.7637 57.0554 31.6758C56.3518 30.5678 56 29.228 56 27.6566V26.9011H59.3215V27.6566C59.3215 29.1474 59.7768 30.2656 60.6873 31.011C61.6186 31.7564 62.8499 32.1291 64.3813 32.1291C65.9334 32.1291 67.1027 31.8168 67.889 31.1923C68.6754 30.5476 69.0686 29.7216 69.0686 28.7143C69.0686 28.0495 68.8824 27.5055 68.5099 27.0824C68.1374 26.6593 67.6097 26.3269 66.9267 26.0852C66.2438 25.8233 65.4264 25.5815 64.4744 25.3599L63.3259 25.0879C61.9393 24.7656 60.7287 24.3727 59.694 23.9093C58.68 23.4258 57.8936 22.7912 57.3348 22.0055C56.776 21.2198 56.4967 20.2125 56.4967 18.9835C56.4967 17.7344 56.8071 16.6667 57.4279 15.7802C58.0695 14.8938 58.949 14.2088 60.0665 13.7253C61.184 13.2418 62.4981 13 64.0088 13C65.5195 13 66.8647 13.2518 68.0443 13.7555C69.2445 14.2592 70.1861 15.0046 70.8691 15.9918C71.552 16.9789 71.8935 18.2179 71.8935 19.7088V20.7967H68.572V19.7088C68.572 18.8022 68.3754 18.0669 67.9822 17.5027C67.6097 16.9386 67.082 16.5256 66.399 16.2637C65.7161 16.0018 64.9194 15.8709 64.0088 15.8709C62.6844 15.8709 61.6496 16.1429 60.9046 16.6868C60.1803 17.2106 59.8182 17.946 59.8182 18.8929C59.8182 19.5375 59.9734 20.0714 60.2838 20.4945C60.6149 20.8974 61.0909 21.2299 61.7117 21.4918C62.3325 21.7537 63.1086 21.9853 64.0399 22.1868L65.1884 22.4588C66.5956 22.761 67.8373 23.1538 68.9134 23.6374C69.9895 24.1007 70.838 24.7353 71.4589 25.5412C72.0797 26.3471 72.3901 27.3846 72.3901 28.6538C72.3901 29.9231 72.059 31.0311 71.3968 31.978C70.7552 32.9249 69.8343 33.6703 68.6341 34.2143C67.4338 34.7381 66.0162 35 64.3813 35Z" fill="black"/>
<path d="M83.1112 35C81.6419 35 80.3071 34.6978 79.1068 34.0934C77.9272 33.489 76.9856 32.6126 76.282 31.4643C75.5991 30.3159 75.2576 28.9359 75.2576 27.3242V26.9313C75.2576 25.3196 75.5991 23.9496 76.282 22.8214C76.9856 21.6731 77.9272 20.7967 79.1068 20.1923C80.3071 19.5678 81.6419 19.2555 83.1112 19.2555C84.5805 19.2555 85.8326 19.5174 86.8673 20.0412C87.902 20.565 88.7298 21.2601 89.3506 22.1264C89.9922 22.9927 90.4061 23.9496 90.5923 24.9973L87.4881 25.6319C87.3846 24.967 87.1674 24.3626 86.8362 23.8187C86.5051 23.2747 86.0395 22.8416 85.4394 22.5192C84.8392 22.1969 84.0839 22.0357 83.1733 22.0357C82.2834 22.0357 81.4763 22.2372 80.752 22.6401C80.0484 23.0229 79.4897 23.587 79.0758 24.3324C78.6619 25.0577 78.4549 25.9441 78.4549 26.9918V27.2637C78.4549 28.3114 78.6619 29.2079 79.0758 29.9533C79.4897 30.6987 80.0484 31.2628 80.752 31.6456C81.4763 32.0284 82.2834 32.2198 83.1733 32.2198C84.5184 32.2198 85.5428 31.8874 86.2464 31.2225C86.9501 30.5375 87.395 29.6712 87.5812 28.6236L90.6854 29.3187C90.4371 30.3462 89.9922 31.293 89.3506 32.1593C88.7298 33.0256 87.902 33.7207 86.8673 34.2445C85.8326 34.7482 84.5805 35 83.1112 35Z" fill="black"/>
<path d="M101.544 35C100.012 35 98.6465 34.6978 97.4463 34.0934C96.2667 33.4689 95.3354 32.5824 94.6525 31.4341C93.9696 30.2857 93.6281 28.9258 93.6281 27.3544V26.9011C93.6281 25.3297 93.9696 23.9799 94.6525 22.8516C95.3354 21.7033 96.2667 20.8169 97.4463 20.1923C98.6465 19.5678 100.012 19.2555 101.544 19.2555C103.075 19.2555 104.441 19.5678 105.641 20.1923C106.842 20.8169 107.783 21.7033 108.466 22.8516C109.149 23.9799 109.491 25.3297 109.491 26.9011V27.3544C109.491 28.9258 109.149 30.2857 108.466 31.4341C107.783 32.5824 106.842 33.4689 105.641 34.0934C104.441 34.6978 103.075 35 101.544 35ZM101.544 32.2198C102.951 32.2198 104.089 31.7866 104.958 30.9203C105.848 30.0339 106.293 28.815 106.293 27.2637V26.9918C106.293 25.4405 105.859 24.2317 104.989 23.3654C104.12 22.4789 102.972 22.0357 101.544 22.0357C100.157 22.0357 99.0191 22.4789 98.1292 23.3654C97.26 24.2317 96.8254 25.4405 96.8254 26.9918V27.2637C96.8254 28.815 97.26 30.0339 98.1292 30.9203C99.0191 31.7866 100.157 32.2198 101.544 32.2198Z" fill="black"/>
<path d="M119.338 34.8489C118.179 34.8489 117.144 34.5971 116.234 34.0934C115.323 33.5897 114.609 32.8745 114.092 31.9478C113.575 31.0211 113.316 29.913 113.316 28.6236V19.6786H116.513V28.4121C116.513 29.7015 116.844 30.6584 117.507 31.283C118.169 31.8874 119.09 32.1896 120.269 32.1896C121.573 32.1896 122.618 31.7665 123.405 30.9203C124.212 30.054 124.615 28.815 124.615 27.2033V19.6786H127.813V34.5769H124.677V32.3407H124.181C123.891 32.9451 123.374 33.5192 122.629 34.0632C121.884 34.587 120.787 34.8489 119.338 34.8489Z" fill="black"/>
<path d="M138.282 34.5769C137.35 34.5769 136.605 34.3049 136.047 33.761C135.509 33.217 135.24 32.4918 135.24 31.5852V22.3077H131.018V19.6786H135.24V14.7527H138.437V19.6786H143V22.3077H138.437V31.0412C138.437 31.6456 138.727 31.9478 139.306 31.9478H142.503V34.5769H138.282Z" fill="black"/>
<rect width="48" height="48" rx="8" fill="#F97316"/>
<path fill-rule="evenodd" clip-rule="evenodd" d="M22.3672 8.16282C23.0438 8.014 23.6875 7.9701 24.4541 8.01926C25.0628 8.05784 25.9424 8.21229 26.4092 8.36106C26.8759 8.50988 27.6296 8.85845 28.086 9.13352C28.5409 9.40989 29.268 9.99383 29.6983 10.4324C30.1296 10.8706 30.6779 11.5885 30.918 12.0271C31.1564 12.4654 31.4776 13.1832 31.6289 13.6218C31.7971 14.1081 31.9322 14.9117 31.9766 15.6824C31.9843 15.8172 31.9894 15.944 31.9932 16.0642C33.0974 16.0692 33.5074 16.1316 34.3447 16.4148C34.9109 16.6051 35.775 17.0111 36.2627 17.3161C36.7504 17.6213 37.4841 18.2274 37.8906 18.6628C38.2973 19.0997 38.8536 19.8917 39.126 20.4236C39.3997 20.9556 39.72 21.8305 39.8369 22.3689C39.9857 23.0454 40.0296 23.6884 39.9805 24.4548C39.9419 25.0637 39.7885 25.9442 39.6397 26.4109C39.4907 26.8777 39.1422 27.6315 38.8672 28.0876C38.5907 28.5427 38.0058 29.2688 37.5674 29.699C37.1288 30.1305 36.4111 30.6798 35.9727 30.9197C35.5341 31.1582 34.8164 31.4784 34.3779 31.6296C33.8916 31.7978 33.089 31.9339 32.3184 31.9782C32.2052 31.9847 32.0977 31.9891 31.9951 31.9929C32.0036 32.6288 31.9506 33.1507 31.8252 33.6892C31.7065 34.2007 31.3652 35.0977 31.0654 35.6824C30.6939 36.4118 30.2348 37.0384 29.6065 37.6775C28.9716 38.3245 28.392 38.7601 27.7129 39.1042C27.1745 39.3766 26.3834 39.6908 25.9531 39.8025C25.5228 39.9128 24.6713 40.0011 24.0625 39.9997C23.4523 39.9984 22.5719 39.9047 22.1065 39.7917C21.6398 39.6787 20.9659 39.4449 20.6074 39.2722C20.2488 39.0994 19.6031 38.6915 19.1729 38.3659C18.7427 38.039 18.1199 37.4221 17.7901 36.9929C17.4589 36.565 17.0399 35.9149 16.8574 35.5495C16.6762 35.184 16.4363 34.5552 16.3242 34.154C16.2135 33.7528 16.099 33.2433 16.0703 33.0241C16.0426 32.8113 16.0121 32.3559 16.002 31.9958C15.3686 32.0041 14.8485 31.9519 14.3115 31.8269C13.7999 31.7082 12.9021 31.366 12.3174 31.0661C11.588 30.6946 10.9623 30.2354 10.3233 29.6072C9.67621 28.9723 9.23968 28.3937 8.89552 27.7146C8.62315 27.1762 8.30995 26.3842 8.19826 25.9538C8.088 25.5236 7.99872 24.672 8.00001 24.0632C8.00137 23.4533 8.09612 22.5737 8.209 22.1081C8.32193 21.6415 8.55578 20.9668 8.72853 20.6081C8.9013 20.2496 9.30932 19.6047 9.63478 19.1745C9.96165 18.7443 10.5786 18.1207 11.0078 17.7907C11.4356 17.4597 12.0848 17.0407 12.4502 16.8581C12.8156 16.6769 13.4444 16.4371 13.8457 16.3249C14.247 16.2141 14.7563 16.0997 14.9756 16.071C15.1871 16.0433 15.6402 16.013 16 16.0027V16.0007C16.0049 13.8197 17.0737 11.5934 18.6621 10.1101C19.0989 9.70351 19.89 9.14618 20.4219 8.87376C20.9538 8.60008 21.8287 8.27982 22.3672 8.16282ZM23.8545 28.2751L22.8164 29.1003C22.3027 29.5076 21.5878 30.0193 21.0381 30.3796C20.8843 30.4805 20.7441 30.571 20.624 30.6423C20.0765 30.9683 19.1787 31.3898 18.6299 31.5788C18.5085 31.6206 18.3867 31.6571 18.2647 31.6921C18.238 31.6997 18.2113 31.7073 18.1846 31.7146C17.7857 31.8241 17.3775 31.8991 16.9326 31.9441C16.9176 32.7326 16.966 33.2959 17.0938 33.7566C17.2046 34.1578 17.4836 34.8433 17.7129 35.279C17.9411 35.7148 18.4517 36.4192 18.8467 36.8445C20.0768 38.1729 21.7364 39.1481 23.6055 39.1482C24.099 39.1482 24.486 39.1697 25.1699 38.9626C25.7824 38.778 26.2714 38.52 26.6572 38.1814C26.9739 37.9038 27.371 37.4522 27.5381 37.1784C27.7062 36.9048 27.9324 36.3356 28.042 35.9157C28.1724 35.4201 28.2136 34.9176 28.1602 34.487C28.1145 34.1216 27.9111 33.4636 27.709 33.0251C27.5069 32.5866 26.9579 31.7786 26.4912 31.2312C25.6192 30.2087 24.7381 29.2355 23.8545 28.2751ZM30.6416 27.3767C30.9675 27.924 31.389 28.821 31.5781 29.3699C31.7706 29.9291 31.889 30.4883 31.9492 31.1218C33.9178 31.0964 36.6337 30.2659 37.55 28.35C37.55 28.35 36.2817 29 34.9092 29C33.2131 29 31.6922 28.0719 30.3652 26.9402C30.4722 27.1026 30.5669 27.2509 30.6416 27.3767ZM18.9678 25.7478C18.1612 26.4948 17.1723 27.3424 16.7695 27.6306C16.3682 27.9187 15.6505 28.3315 15.1748 28.5466C14.5292 28.8398 14.0611 28.9515 13.3145 28.9919C12.5572 29.0323 12.1422 28.9846 11.5869 28.7917C11.1857 28.6509 10.7361 28.4927 10.5899 28.4392C10.4441 28.3861 10.7143 28.7171 11.1885 29.1745C11.7027 29.6686 12.3753 30.1567 12.8496 30.3796C13.2882 30.5843 13.9462 30.831 14.3115 30.9275C14.6772 31.0226 15.4547 31.1003 16.0391 31.1003C16.0452 31.1003 16.0514 31.0994 16.0576 31.0993C16.2012 31.0989 16.3585 31.0932 16.5186 31.0837C16.553 31.0817 16.5874 31.0773 16.6221 31.0749C16.9652 31.0512 17.3163 31.0114 17.5879 30.9616C17.6481 30.9506 17.7044 30.9393 17.7559 30.9275C17.7825 30.9213 17.8081 30.9162 17.832 30.9099C17.8835 30.8966 17.9395 30.8771 18.001 30.8581C18.2509 30.7812 18.5739 30.6622 18.8887 30.532C19.1022 30.4436 19.3128 30.3526 19.4932 30.2644C20.0048 30.0141 20.8826 29.4703 21.4434 29.0544C21.6912 28.8712 22.0678 28.5642 22.4932 28.2068C22.6237 28.0968 22.7593 27.9827 22.8965 27.865C22.9161 27.8482 22.9354 27.8311 22.9551 27.8142C23.0377 27.7431 23.2044 27.5987 23.2044 27.5987C23.2044 27.5987 20.8009 25.0881 20.1886 24.6183C20.1886 24.6183 19.2839 25.455 18.9678 25.7478ZM12.9824 19.8982C12.544 19.9008 11.9763 19.9746 11.7197 20.0632C11.4646 20.1519 11.0455 20.3488 10.7891 20.4988C10.534 20.6488 10.1358 20.9995 9.90333 21.2771C9.67212 21.5548 9.361 22.0456 9.21486 22.3689C9.06742 22.691 8.90535 23.2488 8.85353 23.6072C8.7845 24.0959 8.83086 24.4873 9.0381 25.1716C9.22282 25.7843 9.48053 26.274 9.81935 26.6599C10.0971 26.9766 10.5486 27.3729 10.8223 27.5398C11.0961 27.708 11.6651 27.9351 12.085 28.0447C12.5806 28.175 13.0832 28.2153 13.5137 28.1618C13.8791 28.1162 14.5371 27.9127 14.9756 27.7107C15.4141 27.5086 16.222 26.9596 16.7695 26.4929C17.3183 26.0249 18.1716 25.2725 18.666 24.82L19.5654 23.9988C17.0929 21.7762 16.0003 20.9088 15.543 20.6374C15.0845 20.3662 14.5007 20.0864 14.2442 20.0173C13.9888 19.9483 13.4206 19.8956 12.9824 19.8982ZM35.1084 19.9236C32.3611 19.8303 30.322 22.2941 28.4434 23.9988C30.124 25.6624 32.3361 28.0477 34.9024 28.1697C37.4025 28.2884 39.0317 26.3618 39.0264 23.9988C39.0213 21.7685 37.292 19.9972 35.1084 19.9236ZM31.9776 16.9402C31.2148 16.92 30.6553 16.9658 30.1914 17.0915C29.9908 17.1469 29.7184 17.2382 29.4414 17.3415C29.1642 17.4449 28.8824 17.5604 28.6631 17.6628C28.4439 17.7645 28.1401 17.9306 27.8272 18.1159C27.5139 18.3014 27.1914 18.5063 26.9356 18.6863C26.4239 19.0448 25.6465 19.6471 25.208 20.0251C25.1089 20.1106 24.968 20.2347 24.7969 20.3874C25.2782 20.9335 27.8171 23.3805 27.8203 23.3835C27.8271 23.3772 28.9079 22.3787 29.834 21.5495C30.018 21.3844 30.1843 21.2366 30.3242 21.113C30.3537 21.0871 30.3827 21.0617 30.4111 21.0368L30.4092 21.0378C30.4782 20.9772 30.5391 20.9241 30.5908 20.8796C31.0666 20.4729 31.9329 19.9034 32.5176 19.614C33.3535 19.2007 33.7799 19.0724 34.5108 19.0163C35.1791 18.9642 35.6656 19.007 36.2383 19.1687C36.6766 19.2925 37.1109 19.4625 37.2041 19.5447C37.2983 19.6279 37.4028 19.6505 37.4375 19.5974C37.4721 19.543 37.33 19.3085 37.1221 19.0759C36.9133 18.8425 36.3602 18.4043 35.8926 18.1032C35.4248 17.8008 34.6836 17.428 34.2451 17.2741C33.7163 17.089 33.0239 16.978 32.1856 16.9441C32.1146 16.9412 32.0452 16.942 31.9776 16.9402ZM16.0557 16.9343C14.8465 16.9113 13.7712 17.1096 12.7217 17.7156C11 18.7096 10.4199 19.5974 10.4199 19.5974C11.5646 18.9995 13.1251 18.7747 14.3779 19.1521C15.8563 19.5974 17 20.5 17.6865 21.1706C16.8584 19.8778 16.2389 18.4468 16.0557 16.9343ZM23.9961 8.97434C21.7442 8.97457 19.9984 10.6215 19.9219 12.8923C19.8993 13.5564 19.959 14.0885 20.1006 14.487C20.5895 15.8538 21.6143 16.9298 22.5713 17.9861C23.1045 18.5746 23.6363 19.1652 24.168 19.7556C24.1697 19.7541 24.1721 19.7531 24.1738 19.7517C24.3041 19.6396 24.7695 19.2479 25.208 18.8816C25.3175 18.7901 25.4539 18.6829 25.6065 18.5681C25.8031 18.4201 26.0279 18.2608 26.2559 18.1023C26.4436 17.9718 26.6344 17.8434 26.8154 17.7253C26.927 17.6526 27.0335 17.5818 27.1348 17.5193C27.1851 17.4882 27.2388 17.4577 27.294 17.4255C27.393 17.3676 27.4987 17.3075 27.6094 17.2478C27.7792 17.1562 27.96 17.0643 28.1426 16.9753C28.5921 16.7561 29.0532 16.5569 29.3945 16.4421C29.5518 16.3891 29.6931 16.344 29.8242 16.3044C29.8659 16.2919 29.9065 16.2796 29.9463 16.2683C29.9906 16.2557 30.0337 16.2433 30.0762 16.2322C30.1171 16.2214 30.1575 16.2123 30.1973 16.2029C30.2585 16.1883 30.3188 16.1756 30.3789 16.1638C30.4306 16.1537 30.4821 16.1437 30.5342 16.1355C30.5604 16.1313 30.5868 16.1275 30.6133 16.1238C30.676 16.115 30.7399 16.1078 30.8057 16.1013C30.8267 16.0992 30.8477 16.0963 30.8692 16.0945C30.949 16.0875 31.0321 16.0822 31.1201 16.0779C31.1042 14.2917 30.4733 12.6113 29.294 11.2644C27.8844 9.65459 25.9997 8.97427 23.9961 8.97434Z" fill="white"/>
</g>
<defs>
<clipPath id="clip0_2_408">
<rect width="143" height="48" fill="white"/>
</clipPath>
</defs>
</svg>
